HIERARCHY
ROOT Hips
{
	OFFSET -0.001795 -0.223333 0.028219
	CHANNELS 6 Xposition Yposition Zposition Zrotation Yrotation Xrotation 
	JOINT LeftUpLeg
	{
		OFFSET 0.069520 -0.091406 -0.006815
		CHANNELS 3 Zrotation Yrotation Xrotation
		JOINT LeftLeg
		{
			OFFSET 0.034277 -0.375199 -0.004496
			CHANNELS 3 Zrotation Yrotation Xrotation
			JOINT LeftFoot
			{
				OFFSET -0.013596 -0.397961 -0.043693
				CHANNELS 3 Zrotation Yrotation Xrotation
				JOINT LeftToe
				{
					OFFSET 0.026358 -0.055791 0.119288
					CHANNELS 3 Zrotation Yrotation Xrotation
					End Site
					{
						OFFSET 0.000000 0.000000 0.000000
					}
				}
			}
		}
	}
	JOINT RightUpLeg
	{
		OFFSET -0.067670 -0.090522 -0.004320
		CHANNELS 3 Zrotation Yrotation Xrotation
		JOINT RightLeg
		{
			OFFSET -0.038290 -0.382569 -0.008850
			CHANNELS 3 Zrotation Yrotation Xrotation
			JOINT RightFoot
			{
				OFFSET 0.015774 -0.398415 -0.042312
				CHANNELS 3 Zrotation Yrotation Xrotation
				JOINT RightToe
				{
					OFFSET -0.025372 -0.048144 0.123348
					CHANNELS 3 Zrotation Yrotation Xrotation
					End Site
					{
						OFFSET 0.000000 0.000000 0.000000
					}
				}
			}
		}
	}
	JOINT Spine
	{
		OFFSET -0.002533 0.108963 -0.026696
		CHANNELS 3 Zrotation Yrotation Xrotation
		JOINT Spine1
		{
			OFFSET 0.005487 0.135180 0.001092
			CHANNELS 3 Zrotation Yrotation Xrotation
			JOINT Spine2
			{
				OFFSET 0.001457 0.052922 0.025425
				CHANNELS 3 Zrotation Yrotation Xrotation
				JOINT Neck
				{
					OFFSET -0.002778 0.213870 -0.042857
					CHANNELS 3 Zrotation Yrotation Xrotation
					JOINT Head
					{
						OFFSET 0.005152 0.064970 0.051349
						CHANNELS 3 Zrotation Yrotation Xrotation
						End Site
						{
							OFFSET 0.000000 0.000000 0.000000
						}
					}
				}
				JOINT LeftShoulder
				{
					OFFSET 0.078845 0.121749 -0.034090
					CHANNELS 3 Zrotation Yrotation Xrotation
					JOINT LeftArm
					{
						OFFSET 0.090977 0.030469 -0.008868
						CHANNELS 3 Zrotation Yrotation Xrotation
						JOINT LeftForeArm
						{
							OFFSET 0.259612 -0.012772 -0.027456
							CHANNELS 3 Zrotation Yrotation Xrotation
							JOINT LeftHand
							{
								OFFSET 0.249234 0.008986 -0.001171
								CHANNELS 3 Zrotation Yrotation Xrotation
								End Site
								{
									OFFSET 0.000000 0.000000 0.000000
								}
							}
						}
					}
				}
				JOINT RightShoulder
				{
					OFFSET -0.081759 0.118833 -0.038615
					CHANNELS 3 Zrotation Yrotation Xrotation
					JOINT RightArm
					{
						OFFSET -0.096012 0.032551 -0.009143
						CHANNELS 3 Zrotation Yrotation Xrotation
						JOINT RightForeArm
						{
							OFFSET -0.253742 -0.013329 -0.021401
							CHANNELS 3 Zrotation Yrotation Xrotation
							JOINT RightHand
							{
								OFFSET -0.255298 0.007772 -0.005559
								CHANNELS 3 Zrotation Yrotation Xrotation
								End Site
								{
									OFFSET 0.000000 0.000000 0.000000
								}
							}
						}
					}
				}
			}
		}
	}
}
MOTION
Frames: 10
Frame Time: 0.050000
-0.013922 0.920225 0.044053 -2.213102 -4.606083 14.423467 10.325097 0.302932 -34.159577 -9.349453 3.228585 29.752627 15.588742 27.682475 17.616124 0.000000 0.000000 0.000000 -6.762951 2.208432 -32.686628 9.038889 -1.554876 24.210818 -10.277834 -24.573059 13.325701 0.000000 0.000000 0.000000 1.165717 -1.325183 32.933474 -6.492113 1.873881 -26.542636 -2.517297 9.129600 31.423053 17.651492 -6.634302 -30.924168 0.000000 0.000000 0.000000 -2.038128 -3.049482 0.793247 -53.265825 -8.226861 -6.024823 -156.394967 -82.895980 159.153846 0.000000 0.000000 0.000000 16.558910 -11.238582 -5.716419 57.155165 -3.802384 -9.863611 82.439632 72.590869 74.901157 0.000000 0.000000 0.000000 
-0.012176 0.923699 0.047123 -2.462449 -4.712917 14.070430 10.388660 0.335319 -33.982492 -9.077283 3.139260 29.860456 15.871040 27.609786 20.252850 0.000000 0.000000 0.000000 -6.575131 2.230310 -32.255635 8.997028 -1.513901 23.536592 -10.806618 -25.240923 16.424657 0.000000 0.000000 0.000000 1.483700 -1.408926 32.265302 -6.511665 1.891575 -26.193191 -2.367030 9.000117 31.779586 16.969919 -6.232124 -31.294139 0.000000 0.000000 0.000000 -3.099447 -3.546425 0.924091 -55.267682 -9.829360 -5.517014 -167.487672 -81.854480 172.105559 0.000000 0.000000 0.000000 16.192207 -10.509689 -5.288084 60.494633 -2.855676 -9.900480 85.499942 74.460880 80.195290 0.000000 0.000000 0.000000 
-0.009113 0.931853 0.053464 -2.581817 -4.921135 13.912498 9.692536 0.119814 -32.490826 -8.002276 2.576251 27.848034 16.001563 27.344672 22.824131 0.000000 0.000000 0.000000 -5.695331 2.361373 -31.215371 7.776456 -1.109414 22.524318 -11.118462 -25.554506 18.652423 0.000000 0.000000 0.000000 1.848322 -1.465018 30.653226 -6.252457 1.828909 -26.393480 -2.386281 8.827206 31.760520 16.377114 -6.303670 -29.954224 0.000000 0.000000 0.000000 -4.319618 -2.799071 0.571814 -56.339997 -9.630972 -5.683619 -166.364051 -78.566075 170.709682 0.000000 0.000000 0.000000 17.572755 -10.526879 -5.494329 61.914531 -2.942362 -10.260567 92.335297 75.879094 88.635005 0.000000 0.000000 0.000000 
-0.005285 0.938231 0.062347 -2.665061 -4.789303 13.230424 8.924997 -0.140934 -30.399454 -7.183292 2.166745 26.585377 15.638921 26.882376 22.923430 0.000000 0.000000 0.000000 -5.147672 2.292123 -29.221026 7.331234 -0.970421 20.857731 -12.381840 -27.095946 21.020401 0.000000 0.000000 0.000000 2.744690 -1.675023 28.434467 -6.495712 1.894779 -25.828152 -1.981014 8.226533 31.830694 15.898271 -6.198994 -29.831979 0.000000 0.000000 0.000000 -5.145091 -2.268580 0.354249 -56.786147 -11.263563 -4.929548 -171.073456 -75.578658 176.822450 0.000000 0.000000 0.000000 17.893245 -11.145680 -6.001200 63.479932 -3.461674 -10.814064 106.820452 75.827495 103.812345 0.000000 0.000000 0.000000 
-0.000833 0.937814 0.072696 -2.799660 -5.273577 12.153107 8.757211 -0.154417 -28.646488 -7.203627 2.254550 27.015582 15.561505 26.796563 22.370842 0.000000 0.000000 0.000000 -5.156809 2.181061 -27.583469 7.589756 -1.007813 21.104208 -12.731167 -27.624103 20.561845 0.000000 0.000000 0.000000 3.653053 -1.814721 26.647126 -7.080246 2.012072 -25.993535 -1.776084 7.841621 31.540173 15.234584 -6.078914 -29.285224 0.000000 0.000000 0.000000 -5.459468 -1.897585 0.247255 -56.913116 -12.472413 -4.302506 -173.976801 -72.765702 -178.905051 0.000000 0.000000 0.000000 18.669083 -11.880590 -6.674512 63.827804 -3.552434 -10.990550 122.302574 74.791902 119.956484 0.000000 0.000000 0.000000 
0.004640 0.932992 0.082518 -2.471511 -5.276108 9.894796 7.900686 -0.359111 -26.373968 -7.219267 2.343083 28.332990 16.045713 27.527699 21.310923 0.000000 0.000000 0.000000 -5.254166 1.953927 -25.336907 7.562566 -1.007916 22.358288 -14.377048 -29.897915 19.857101 0.000000 0.000000 0.000000 4.291011 -1.908974 25.673814 -7.450349 2.106982 -26.129350 -2.073935 6.785465 31.545851 14.586781 -5.504342 -31.277436 0.000000 0.000000 0.000000 -5.588813 -2.859613 0.747687 -56.857434 -16.051972 -2.557294 174.901931 -71.556891 -162.570552 0.000000 0.000000 0.000000 20.292539 -11.582690 -6.933993 63.488199 -1.352896 -10.001926 136.385450 75.261271 136.956865 0.000000 0.000000 0.000000 
0.011330 0.929474 0.090683 -2.368901 -5.667341 7.975007 7.610026 -0.381152 -24.990555 -7.491336 2.634235 30.298125 16.069564 27.438610 21.730077 0.000000 0.000000 0.000000 -5.548365 1.757189 -23.419261 7.420889 -0.940083 23.513290 -14.476634 -30.109137 18.966365 0.000000 0.000000 0.000000 4.668341 -1.897132 24.643762 -7.558873 2.129564 -26.718685 -2.347184 5.752904 32.178995 13.471465 -5.085994 -31.761784 0.000000 0.000000 0.000000 -5.613680 -5.646548 2.020526 -56.552244 -21.899257 0.295483 156.726635 -70.497329 -136.081453 0.000000 0.000000 0.000000 20.999167 -10.307656 -6.524171 63.505518 3.140306 -7.876035 152.887821 75.201083 157.497954 0.000000 0.000000 0.000000 
0.019348 0.934256 0.097396 -2.409533 -6.764634 6.799047 6.904740 -0.442461 -23.104752 -7.204786 2.644100 30.127443 16.142241 27.198888 23.181177 0.000000 0.000000 0.000000 -5.344540 1.648507 -21.165502 6.576191 -0.609106 22.256813 -14.078978 -29.501712 19.388836 0.000000 0.000000 0.000000 5.087486 -1.834770 23.208972 -7.257190 2.093501 -25.825360 -2.942681 5.604150 31.276931 11.975778 -4.403757 -31.494912 0.000000 0.000000 0.000000 -4.633914 -6.335323 2.335655 -56.947907 -26.777013 3.026769 145.828311 -68.268876 -119.398486 0.000000 0.000000 0.000000 20.706196 -9.905583 -6.448190 64.057885 8.128792 -5.141415 165.838517 73.553498 173.664126 0.000000 0.000000 0.000000 
0.028083 0.943240 0.103585 -2.536303 -7.938710 6.554117 6.322913 -0.478728 -20.388529 -6.747257 2.359813 27.002124 15.152935 25.817021 23.672439 0.000000 0.000000 0.000000 -5.312186 1.565709 -19.548026 5.876295 -0.364195 20.431482 -12.937140 -27.887664 20.171548 0.000000 0.000000 0.000000 5.478494 -1.740109 21.157740 -6.780419 1.963589 -26.411375 -3.148283 5.886293 31.628080 11.832791 -4.585475 -30.616956 0.000000 0.000000 0.000000 -2.749066 -6.626099 2.436031 -59.308409 -30.343633 5.422974 138.972481 -65.482017 -107.010516 0.000000 0.000000 0.000000 19.318678 -9.832580 -6.294794 65.250262 12.080154 -2.973102 175.459290 71.035423 -173.208539 0.000000 0.000000 0.000000 
0.036245 0.950429 0.109135 -2.638879 -9.233622 6.844463 5.771078 -0.501989 -18.117073 -6.192504 2.074170 24.167696 13.343998 23.601969 22.303532 0.000000 0.000000 0.000000 -5.404263 1.547662 -18.850970 5.203656 -0.154571 18.898550 -5.893197 -17.345400 14.367278 0.000000 0.000000 0.000000 6.189566 -1.669393 18.475642 -6.821648 1.946947 -26.661200 -3.564466 6.194647 31.826380 11.408353 -4.589023 -29.994853 0.000000 0.000000 0.000000 -1.704403 -5.876507 2.149173 -61.205959 -32.069069 6.918138 137.477439 -63.581558 -102.336978 0.000000 0.000000 0.000000 18.982887 -9.501514 -6.185326 66.024132 15.407096 -1.103059 -177.832720 67.092712 -162.939312 0.000000 0.000000 0.000000 
